<svg width="219" height="349" viewBox="0 0 219 349" fill="none" xmlns="http://www.w3.org/2000/svg">
<path d="M282.877 83.1373C305.714 128.775 320.923 172.806 327.061 207.092C330.13 224.239 330.925 238.919 329.288 250.133C327.647 261.365 323.589 268.996 317.074 272.256C310.559 275.516 302.018 274.19 292.045 268.769C282.088 263.357 270.815 253.92 258.932 241.184C235.169 215.717 209.046 177.147 186.209 131.509C163.372 85.8714 148.162 41.8404 142.025 7.55434C138.955 -9.59206 138.16 -24.2722 139.798 -35.4865C141.438 -46.7182 145.496 -54.3493 152.011 -57.6094C158.526 -60.8695 167.067 -59.5429 177.04 -54.1223C186.997 -48.71 198.27 -39.273 210.154 -26.5371C233.916 -1.07044 260.04 37.4993 282.877 83.1373Z" stroke="#66DED4"/>
<path d="M252.126 56.2304C300.545 72.3531 342.435 92.7329 371.019 112.637C385.313 122.591 396.256 132.409 403.028 141.497C409.81 150.599 412.336 158.864 410.035 165.776C407.733 172.688 400.756 177.79 389.871 181.008C379.003 184.222 364.359 185.521 346.95 184.918C312.14 183.713 266.395 174.912 217.976 158.789C169.557 142.666 127.668 122.287 99.0837 102.383C84.789 92.4286 73.8464 82.6104 67.0746 73.5228C60.2923 64.421 57.766 56.1553 60.0676 49.2433C62.3692 42.3313 69.3464 37.23 80.2313 34.0112C91.0992 30.7973 105.743 29.499 123.152 30.1017C157.962 31.3068 203.707 40.1077 252.126 56.2304Z" stroke="#66DED4"/>
<path d="M285.635 124.907C269.513 173.326 249.133 215.216 229.229 243.799C219.275 258.094 209.457 269.037 200.369 275.809C191.267 282.591 183.002 285.117 176.09 282.816C169.178 280.514 164.076 273.537 160.857 262.652C157.644 251.784 156.345 237.14 156.948 219.731C158.153 184.921 166.954 139.176 183.077 90.7568C199.199 42.3377 219.579 0.448323 239.483 -28.1355C249.437 -42.4302 259.255 -53.3729 268.343 -60.1446C277.445 -66.9269 285.711 -69.4532 292.623 -67.1516C299.535 -64.85 304.636 -57.8728 307.855 -46.988C311.069 -36.12 312.367 -21.4757 311.764 -4.06721C310.559 30.743 301.758 76.488 285.635 124.907Z" stroke="#66DED4"/>
</svg>
