<svg width="37" height="37" viewBox="0 0 37 37" fill="none" xmlns="http://www.w3.org/2000/svg">
<path d="M27.9905 17.5263L30.3215 15.0726C31.1355 14.2158 32.1715 13.7484 33.3 13.6316V11.6842L22.2 0H3.7C1.6465 0 0 1.73316 0 3.89474V31.1579C0 32.1908 0.38982 33.1815 1.0837 33.9119C1.77759 34.6423 2.7187 35.0526 3.7 35.0526H14.8V31.4111L15.0405 31.1579H3.7V3.89474H16.65V17.5263H27.9905ZM20.35 2.92105L30.525 13.6316H20.35V2.92105ZM29.8405 21.09L33.6145 25.0626L22.274 37H18.5V33.0274L29.8405 21.09ZM36.7225 21.7911L34.9095 23.6995L31.1355 19.7268L32.9485 17.8184C33.3 17.4289 33.9105 17.4289 34.2805 17.8184L36.7225 20.3889C37.0925 20.7784 37.0925 21.4211 36.7225 21.7911Z" fill="#30ADA2"/>
</svg>
