<svg width="40" height="40" viewBox="0 0 40 40" fill="none" xmlns="http://www.w3.org/2000/svg">
<path d="M17.9805 0C20.0728 0 22.1153 0.316667 24.1081 0.95C26.1008 1.58333 27.9274 2.48333 29.588 3.65C30.053 3.98333 30.3187 4.42533 30.3851 4.976C30.4516 5.52667 30.3021 6.018 29.9368 6.45C29.5714 6.91667 29.1065 7.18333 28.5419 7.25C27.9773 7.31667 27.4625 7.16667 26.9975 6.8C25.8019 5.86667 24.3983 5.16667 22.7869 4.7C21.1755 4.23333 19.5733 4 17.9805 4C14.6925 4 11.8615 4.86667 9.48749 6.6C7.1135 8.33333 5.22838 10.4167 3.83215 12.85C3.56646 13.35 3.17655 13.7 2.66243 13.9C2.1483 14.1 1.64149 14.0833 1.14198 13.85C0.61059 13.5833 0.261864 13.1833 0.0958038 12.65C-0.0702562 12.1167 -0.0204381 11.6 0.245258 11.1C1.93907 7.96667 4.28915 5.33333 7.2955 3.2C10.3018 1.06667 13.8635 0 17.9805 0ZM17.831 40C14.1445 40 10.7655 39.0087 7.69404 37.026C4.6226 35.0433 2.15628 32.4347 0.295076 29.2C0.0293801 28.7 -0.0370442 28.1667 0.0958038 27.6C0.228652 27.0333 0.52756 26.6 0.992527 26.3C1.4575 26 1.95568 25.9253 2.48707 26.076C3.01846 26.2267 3.417 26.5347 3.6827 27C5.17724 29.6333 7.15335 31.792 9.61104 33.476C12.0687 35.16 14.8087 36.0013 17.831 36C22.3146 36 26.134 34.4333 29.2891 31.3C32.4443 28.1667 34.0218 24.3833 34.0218 19.95C33.9554 19.4167 34.1381 18.95 34.5698 18.55C35.0016 18.15 35.4832 17.9667 36.0146 18C36.6788 18.0333 37.169 18.2333 37.4852 18.6C37.8014 18.9667 37.9754 19.45 38.0073 20.05C38.0073 22.8167 37.4839 25.4167 36.437 27.85C35.3902 30.2833 33.9541 32.4 32.1288 34.2C30.3034 36 28.1613 37.4167 25.7022 38.45C23.2432 39.4833 20.6195 40 17.831 40ZM10.9063 14.95L9.81031 16.05C9.5114 16.35 9.37058 16.7 9.38785 17.1C9.40512 17.5 9.56255 17.85 9.86013 18.15C10.1577 18.45 10.5064 18.6 10.9063 18.6C11.3062 18.6 11.6549 18.45 11.9525 18.15L13.6961 16.4C14.0947 16 14.2939 15.5333 14.2939 15C14.2939 14.4667 14.0947 14 13.6961 13.6L11.9027 11.8C11.637 11.5333 11.2882 11.4 10.8565 11.4C10.4247 11.4 10.076 11.5333 9.81031 11.8C9.5114 12.1 9.36195 12.45 9.36195 12.85C9.36195 13.25 9.5114 13.6 9.81031 13.9L10.9063 14.95ZM36.0146 14C34.9186 14 33.9807 13.6087 33.2008 12.826C32.421 12.0433 32.0305 11.1013 32.0291 10C32.0291 8.8 32.3945 7.61667 33.1251 6.45C33.8558 5.28333 34.5366 4.21667 35.1677 3.25C35.2673 3.08333 35.3922 2.96667 35.5423 2.9C35.6924 2.83333 35.8498 2.8 36.0146 2.8C36.1793 2.8 36.3374 2.83333 36.4888 2.9C36.6403 2.96667 36.7645 3.08333 36.8615 3.25C37.4925 4.21667 38.1733 5.28333 38.904 6.45C39.6347 7.61667 40 8.8 40 10C40 11.1 39.6101 12.042 38.8303 12.826C38.0505 13.61 37.1119 14.0013 36.0146 14ZM25.3037 14.95L26.3499 13.9C26.6488 13.6 26.7982 13.25 26.7982 12.85C26.7982 12.45 26.6488 12.1 26.3499 11.8C26.051 11.5 25.7022 11.35 25.3037 11.35C24.9052 11.35 24.5564 11.5 24.2575 11.8L22.4641 13.6C22.0655 14 21.8663 14.4667 21.8663 15C21.8663 15.5333 22.0655 16 22.4641 16.4L24.2575 18.2C24.5564 18.5 24.9131 18.6413 25.3276 18.624C25.7421 18.6067 26.0995 18.4487 26.3997 18.15C26.6999 17.8513 26.8494 17.4933 26.8481 17.076C26.8467 16.6587 26.6973 16.3 26.3997 16L25.3037 14.95ZM10.3583 30C10.5908 30 10.8319 29.9333 11.0817 29.8C11.3314 29.6667 11.5221 29.5 11.6536 29.3C12.3842 28.3 13.2976 27.5 14.3936 26.9C15.4896 26.3 16.7184 26 18.0801 26C19.4418 26 20.6706 26.3 21.7666 26.9C22.8626 27.5 23.7759 28.3 24.5066 29.3C24.6395 29.5 24.8221 29.6667 25.0546 29.8C25.2871 29.9333 25.5196 30 25.7521 30C26.3499 30 26.7903 29.7333 27.0732 29.2C27.3562 28.6667 27.2977 28.1 26.8979 27.5C26.0344 26.2 24.8221 25.1253 23.2612 24.276C21.7002 23.4267 19.9732 23.0013 18.0801 23C17.2166 23 16.3697 23.092 15.5394 23.276C14.7091 23.46 13.9286 23.7347 13.1979 24.1L6.12378 20C6.12378 19.4667 5.99093 18.9667 5.72524 18.5C5.45954 18.0333 5.09421 17.6667 4.62924 17.4C3.89858 17 3.14334 16.9087 2.36352 17.126C1.5837 17.3433 0.97725 17.8013 0.544166 18.5C0.145622 19.2333 0.054621 19.992 0.271163 20.776C0.487705 21.56 0.944038 22.168 1.64016 22.6C2.10513 22.8667 2.60331 23 3.1347 23C3.66609 23 4.16427 22.8667 4.62924 22.6L10.5078 26C10.2421 26.2667 10.0096 26.5333 9.81031 26.8L9.21249 27.6C8.84716 28.1667 8.80598 28.7087 9.08894 29.226C9.37191 29.7433 9.79503 30.0013 10.3583 30Z" fill="#30ADA2"/>
</svg>
