<svg width="40" height="43" viewBox="0 0 40 43" fill="none" xmlns="http://www.w3.org/2000/svg">
<path d="M20 0C16.5 0 14.405 0.529231 13.0733 1.18912C12.4067 1.51988 11.9333 1.86719 11.615 2.22277C11.3964 2.48699 11.2204 2.78324 11.0933 3.10096C11.0411 3.23379 11.0063 3.37276 10.99 3.51442L10.1033 14.8333C10.0917 14.9028 10.115 15.0153 10.1033 15.0913L10 16.2292C9.99029 16.3321 9.99029 16.4356 10 16.5385C10 21.9962 14.5 26.4615 20 26.4615C25.5 26.4615 30 21.9962 30 16.5385V16.2805C30.0003 16.2634 30.0003 16.2463 30 16.2292L29.01 3.51442C28.9937 3.37276 28.9589 3.23379 28.9067 3.10096C28.9067 3.10096 28.705 2.57835 28.385 2.22277C28.0667 1.86554 27.5933 1.51823 26.9267 1.18912C25.595 0.527577 23.5 0 20 0ZM20 26.4615C9 26.4615 0 31.5984 0 36.2292V43H40V36.2292C40 31.8299 31.8633 26.9842 21.615 26.5128C21.0774 26.4776 20.5388 26.4605 20 26.4615ZM20 3.30769C23.1667 3.30769 24.7483 3.80385 25.4167 4.13462C25.64 4.24542 25.6667 4.28842 25.73 4.34135L26.4067 12.8173C24.8733 12.9099 22.7833 13.2308 20 13.2308C17.2167 13.2308 15.1283 12.9099 13.5933 12.8173L14.27 4.34135C14.3317 4.28842 14.36 4.24542 14.5833 4.13462C15.2517 3.80385 16.8333 3.30769 20 3.30769ZM18.645 4.96154V6.92631H16.6667V9.61381H18.6467V11.5769H21.3533V9.61215H23.3333V6.92631H21.3533V4.96154H18.645ZM15 30.1827L19.2717 39.6923H3.33333V36.2292C3.33333 34.997 7.58333 31.3883 15 30.1827ZM25 30.1827C32.4167 31.39 36.6667 34.997 36.6667 36.2292V39.6923H20.7283L25 30.1827Z" fill="#30ADA2"/>
</svg>
