<svg width="130" height="130" viewBox="0 0 130 130" fill="none" xmlns="http://www.w3.org/2000/svg">
<path d="M71.1875 129.518H58.3306C47.6121 129.518 38.9255 120.832 38.9255 110.113V96.9633C38.9255 93.4497 36.0773 90.5926 32.5548 90.5926H19.4051C8.68659 90.5926 0 81.906 0 71.1875V58.3306C0 47.6121 8.68659 38.9255 19.4051 38.9255H26.9471C29.7154 38.9255 31.9603 41.1704 31.9603 43.9387C31.9603 46.7071 29.7154 48.9519 26.9471 48.9519H19.4051C14.2233 48.9519 10.0175 53.1577 10.0175 58.3395V71.1964C10.0175 76.3782 14.2233 80.5839 19.4051 80.5839H32.5548C41.6051 80.5839 48.9519 87.9218 48.9519 96.9811V110.131C48.9519 115.313 53.1577 119.518 58.3395 119.518H71.1963C76.3781 119.518 80.5839 115.313 80.5839 110.131V100.406C80.5839 92.1986 77.3896 84.4791 71.5868 78.6762L50.8774 57.958C43.1846 50.2563 38.9433 40.0258 38.9433 29.1387V19.4051C38.9433 8.6866 47.6299 0 58.3484 0H71.2052C81.9237 0 90.6103 8.6866 90.6103 19.4051V32.5548C90.6103 36.0684 93.4585 38.9255 96.9811 38.9255H110.131C120.849 38.9255 129.536 47.6121 129.536 58.3306V71.1875C129.536 81.906 120.849 90.5926 110.131 90.5926H102.598C99.8293 90.5926 97.5844 88.3477 97.5844 85.5794C97.5844 82.811 99.8293 80.5662 102.598 80.5662H110.131C115.313 80.5662 119.518 76.3604 119.518 71.1786V58.3217C119.518 53.1399 115.313 48.9342 110.131 48.9342H96.9633C87.913 48.9342 80.575 41.5963 80.575 32.5459V19.4051C80.575 14.2233 76.3692 10.0175 71.1875 10.0175H58.3306C53.1488 10.0175 48.9431 14.2144 48.9431 19.4051V29.1298C48.9431 37.3373 52.1373 45.0567 57.9402 50.8596L78.6496 71.569C86.3513 79.2618 90.5837 89.5012 90.5837 100.388V110.113C90.5926 120.823 81.906 129.518 71.1875 129.518Z" fill="white"/>
</svg>
